<?xml version="1.0" standalone="no"?><!DOCTYPE svg PUBLIC "-//W3C//DTD SVG 1.1//EN" "http://www.w3.org/Graphics/SVG/1.1/DTD/svg11.dtd"><svg t="1623133822912" class="icon" viewBox="0 0 1024 1024" version="1.1" xmlns="http://www.w3.org/2000/svg" p-id="46545" xmlns:xlink="http://www.w3.org/1999/xlink" width="200" height="200"><defs><style type="text/css"></style></defs><path d="M804.02963 56.888889H219.97037C161.374815 56.888889 113.777778 106.192593 113.777778 167.253333v689.493334C113.777778 917.807407 161.374815 967.111111 219.97037 967.111111h584.05926c58.595556 0 106.192593-49.303704 106.192592-110.364444V167.253333C910.222222 106.192593 862.625185 56.888889 804.02963 56.888889zM432.355556 280.651852l119.466666 124.017778 174.08-180.906667 50.062222 51.958518L551.822222 508.776296l-119.466666-124.017777-120.983704 125.724444-50.062222-51.958519 171.045926-177.872592z m305.303703 438.234074H299.614815c-21.997037 0-39.822222-18.583704-39.822222-41.339259 0-22.945185 17.825185-41.339259 39.822222-41.33926h438.044444c21.997037 0 39.822222 18.583704 39.822222 41.33926 0 22.755556-17.825185 41.339259-39.822222 41.339259z" p-id="46546" fill="#1296db"></path></svg>