<?xml version="1.0" standalone="no"?><!DOCTYPE svg PUBLIC "-//W3C//DTD SVG 1.1//EN" "http://www.w3.org/Graphics/SVG/1.1/DTD/svg11.dtd"><svg t="1623132418510" class="icon" viewBox="0 0 1024 1024" version="1.1" xmlns="http://www.w3.org/2000/svg" p-id="13734" xmlns:xlink="http://www.w3.org/1999/xlink" width="200" height="200"><defs><style type="text/css"></style></defs><path d="M973.482667 230.4c0-12.8-6.421333-19.2-19.221334-25.6L524.821333 0h-25.642666L69.738667 204.8c-6.421333 6.4-12.821333 12.8-19.242667 25.6-6.4 57.6-12.821333 166.4 12.821333 294.4 51.285333 236.8 198.698667 403.2 435.84 499.2H524.8c70.506667-32 134.592-64 192.277333-108.8 12.821333-12.8 19.221333-32 6.4-44.8-12.821333-12.8-32.042667-19.2-44.864-6.4-51.242667 38.4-102.528 70.4-166.613333 96-205.098667-89.6-339.712-236.8-384.576-448-25.642667-108.8-19.221333-198.4-12.821333-256L512 70.4 909.397333 256c6.4 57.6 12.821333 153.6-12.821333 256-6.4 38.4-19.221333 76.8-38.464 115.2-6.421333 19.2 0 32 19.221333 44.8 19.221333 6.4 32.042667 0 44.864-19.2 19.221333-38.4 32.042667-83.2 38.464-121.6 25.642667-134.4 19.221333-243.2 12.821334-300.8z" p-id="13735" fill="#1296db"></path><path d="M691.456 633.6c57.685333-83.2 51.285333-198.4-19.221333-268.8-83.328-83.2-211.52-83.2-294.826667 0-83.328 83.2-83.328 211.2 0 294.4 38.464 38.4 96.149333 64 147.413333 64 44.864 0 83.328-12.8 121.770667-38.4l128.192 128c6.4 6.4 12.821333 6.4 25.642667 6.4s19.221333 0 25.642666-6.4c12.821333-12.8 12.821333-32 0-44.8l-134.613333-134.4z m-64.085333-19.2c-57.685333 51.2-147.413333 51.2-205.098667 0-57.685333-57.6-57.685333-147.2 0-204.8 25.642667-25.6 64.085333-44.8 102.549333-44.8 38.464 0 76.906667 12.8 102.549334 44.8 57.685333 57.6 57.685333 147.2 0 204.8z" p-id="13736" fill="#1296db"></path></svg>