<?xml version="1.0" standalone="no"?><!DOCTYPE svg PUBLIC "-//W3C//DTD SVG 1.1//EN" "http://www.w3.org/Graphics/SVG/1.1/DTD/svg11.dtd"><svg t="1623132094508" class="icon" viewBox="0 0 1024 1024" version="1.1" xmlns="http://www.w3.org/2000/svg" p-id="5454" data-spm-anchor-id="a313x.7781069.0.i3" xmlns:xlink="http://www.w3.org/1999/xlink" width="200" height="200"><defs><style type="text/css"></style></defs><path d="M921.25 0h-818.5a40 40 0 0 0-40 40v944a40 40 0 0 0 40 40h818.5a40 40 0 0 0 40-40V40a40 40 0 0 0-40-40z m0 984h-818.5V40h818.5z" p-id="5455" fill="#1296db"></path><path d="M512 839.78c0.14 0 216.57-39.39 295.21-222.89V301.6c0-14.24-11.42-25.54-25.65-26.17-174-7.66-269.43-91.09-269.56-91.21-0.13 0.12-95.6 83.55-269.56 91.21-14.23 0.63-25.65 11.93-25.65 26.17v315.29C295.42 800.39 511.85 839.76 512 839.78zM256.78 314.7c71.87-4.69 141.62-22.38 202.47-51.42a445.36 445.36 0 0 0 52.4-29.28l0.69 0.52 0.37-0.28a447.35 447.35 0 0 0 52 29.09c60.84 29 130.6 46.73 202.47 51.43V608.4c-15.5 33.52-37.59 64-65.74 90.69-24.69 23.42-54.15 44.09-87.54 61.42a460.37 460.37 0 0 1-101.19 38.17l-0.62-0.16-0.75 0.19a460 460 0 0 1-101.32-38.2c-33.39-17.33-62.85-38-87.54-61.42-28.15-26.69-50.24-57.17-65.74-90.69z" p-id="5456" fill="#1296db"></path><path d="M460.14 535.25h49.69L559.39 653h57.26l-60.5-127.5Q605 503.84 605 451.76q0-39.06-24.76-59.93T503.36 371h-96v282h52.79z m0-128.13H501q52.08 0 52.08 44.22 0 21.29-12.73 34.52t-39.82 13.23h-40.39z" p-id="5457" fill="#1296db"></path></svg>