<?xml version="1.0" standalone="no"?><!DOCTYPE svg PUBLIC "-//W3C//DTD SVG 1.1//EN" "http://www.w3.org/Graphics/SVG/1.1/DTD/svg11.dtd"><svg t="1623133923206" class="icon" viewBox="0 0 1024 1024" version="1.1" xmlns="http://www.w3.org/2000/svg" p-id="50461" xmlns:xlink="http://www.w3.org/1999/xlink" width="200" height="200"><defs><style type="text/css"></style></defs><path d="M909.04049091 512c-15.61661049 0-28.39383725-12.77722677-28.39383726-28.39383725V193.04256154c0-42.11752525-34.07260469-75.71689933-76.19012995-75.71689933H210.55209451c-42.11752525 0-76.19012996 34.07260469-76.19012996 75.71689933v637.91487692c0 42.11752525 34.07260469 75.71689933 76.19012996 75.71689933H478.87385654c15.61661049 0 28.39383725 12.77722677 28.39383725 28.39383726s-12.77722677 28.39383725-28.39383725 28.39383725H210.55209451c-73.35074624 0-132.97780446-59.15382761-133.45103508-132.50457384V193.04256154c0-73.35074624 60.10028885-132.97780446 133.45103508-132.50457384h594.37765981c73.35074624 0 132.97780446 59.15382761 132.97780446 132.50457384V483.60616275c0 15.61661049-12.77722677 28.39383725-28.86706787 28.39383725zM564.0553683 493.54400579H362.93235442c-15.61661049 0-28.39383725-12.77722677-28.39383725-28.39383725 0-3.78584496 0.94646124-7.57168994 2.36615312-10.88430429 4.25907559-10.88430429 14.67014925-17.50953297 26.50091476-17.98276359H568.7876745l-44.95690898-44.48367836c-5.20553683-5.20553683-8.51815117-12.30399614-8.51815117-19.87568608 0-15.61661049 12.77722677-28.39383725 28.39383725-28.39383725 7.57168994 0 14.67014925 2.83938373 20.3489167 8.51815118l85.65474237 85.18151175 6.15199807 6.15199807c5.20553683 5.20553683 8.04492056 12.30399614 8.04492056 19.40245545V464.20370729c0 1.41969186-0.47323062 3.31261435-0.94646125 4.73230621v0.47323062c0 0.47323062-0.47323062 1.41969186-0.47323062 1.89292249 0 0.47323062-0.47323062 1.41969186-0.94646124 1.89292249 0 0.47323062-0.47323062 0.94646124-0.94646124 1.41969186-1.41969186 2.83938373-2.83938373 5.20553683-5.20553683 7.09845931l-6.15199808 6.15199807-2.83938372 2.83938372-82.34212802 83.28858927c-11.3575349 10.88430429-29.3402985 10.88430429-40.6978334 0-10.88430429-10.88430429-10.88430429-28.86706787 0-39.75137216l0.47323062-0.47323061 40.22460278-40.22460277z m42.11752526 315.17159349c0-7.09845931 2.83938373-14.19691863 8.51815117-19.40245545l6.15199806-6.15199808 85.65474239-85.18151175c8.04492056-8.04492056 20.3489167-10.41107366 31.23322097-6.15199808 10.41107366 4.25907559 17.50953297 14.67014925 17.50953297 26.02768416 0 7.57168994-2.83938373 14.67014925-8.51815117 20.3489167l-44.95690898 44.48367835h205.85532008c11.3575349 0 21.76860856 7.09845931 26.50091476 17.50953298 4.25907559 10.41107366 1.89292248 22.7150698-6.15199808 30.75999035-5.20553683 5.20553683-12.77722677 8.51815117-20.34891668 8.51815118h-200.64978326l40.22460278 40.22460277c10.88430429 10.88430429 11.3575349 28.86706787 0 39.75137215-11.3575349 10.88430429-29.3402985 10.88430429-40.22460278 0l-82.81535865-82.34212804-2.83938372-3.31261434-6.15199807-6.15199806c-2.3661531-2.3661531-4.25907559-5.20553683-5.67876744-8.51815118-0.47323062-0.47323062-0.47323062-0.94646124-0.94646126-1.89292249s-0.47323062-1.89292248-0.94646124-2.83938372c-0.47323062-1.41969186-0.47323062-3.31261435-0.94646124-4.73230621v-0.47323061c-0.47323062 0.47323062-0.47323062 0-0.47323061-0.47323063z" p-id="50462" fill="#1296db"></path></svg>